 <svg xmlns="http://www.w3.org/2000/svg" viewBox="0 0 24 20" fill="none"> <g clip-path='url(#clipCA)'> <path d="M22.81 1H1.42V15.58H22.81V1Z" stroke="currentColor" strokeMiterlimit="10" strokeLinejoin="round" /> <path d="M14.7425 10.5472C14.7961 10.4936 17 8.56438 17 8.56438L16.6245 8.40343C16.4099 8.29828 16.4657 8.15665 16.5172 8.03004C16.5687 7.86695 16.9485 6.58584 16.9485 6.58584C16.9485 6.58584 15.9249 6.80043 15.7103 6.85408C15.5494 6.90558 15.4957 6.80043 15.4421 6.69313C15.3884 6.58584 15.1202 5.99785 15.1202 5.99785C15.1202 5.99785 13.9914 7.28326 13.9378 7.33476C13.7232 7.49571 13.5064 7.33476 13.5601 7.12017C13.5601 6.90558 14.1524 4.33906 14.1524 4.33906C14.1524 4.33906 13.5064 4.71245 13.2918 4.81974C13.1309 4.92704 13.0215 4.92704 12.9142 4.71245C12.8047 4.5515 11.9979 3 11.9979 3C11.9979 3 11.1931 4.5515 11.0858 4.71245C10.9785 4.92704 10.8712 4.92704 10.7082 4.81974C10.4936 4.71245 9.84764 4.33906 9.84764 4.33906C9.84764 4.33906 10.4399 6.90558 10.4399 7.12017C10.4936 7.33476 10.279 7.49571 10.0622 7.33476C10.0086 7.28112 8.87983 5.99785 8.87983 5.99785C8.87983 5.99785 8.61159 6.58369 8.55794 6.69099C8.50429 6.79828 8.45064 6.90343 8.2897 6.85193C8.07296 6.79828 7.0515 6.58369 7.0515 6.58369C7.0515 6.58369 7.42918 7.86481 7.48283 8.0279C7.53433 8.15665 7.59013 8.29614 7.37554 8.40129L7 8.56438C7 8.56438 9.20172 10.4936 9.25751 10.5472C9.36695 10.6545 9.4721 10.7082 9.36695 11.03C9.25751 11.3519 9.15021 11.7833 9.15021 11.7833C9.15021 11.7833 11.1931 11.3519 11.4099 11.2983C11.5966 11.279 11.8026 11.3519 11.8026 11.5665C11.8026 11.7811 11.6781 13.9871 11.6781 13.9871H12.3219C12.3219 13.9871 12.1974 11.7833 12.1974 11.5665C12.1974 11.3498 12.4013 11.279 12.5923 11.2983C12.8069 11.3519 14.8498 11.7833 14.8498 11.7833C14.8498 11.7833 14.7425 11.3519 14.6352 11.03C14.5279 10.7082 14.6352 10.6545 14.7425 10.5472Z" fill="currentColor" /> <rect x="1" y="1" width="5" height="15" fill="currentColor" /> <rect x="18" y="1" width="5" height="15" fill="currentColor" /> </g> <defs> <clipPath id='clipCA'> <rect width="28" height="20" fill="currentColor" /> </clipPath> </defs> </svg> 