 <svg width="24" height="19" viewBox="0 0 24 19" fill="none" xmlns="http://www.w3.org/2000/svg"> <g clip-path="url(#a)"> <path d="M0 0h24v18.113H0V0Z" fill="#000"/> <path d="m1.406 0 4.575 3.415L10.537 0H12v1.17L7.5 4.547 12 7.906v1.15h-1.5L6 5.68 1.519 9.057H0V7.925l4.481-3.359L0 1.208V0h1.406Z" fill="#FFF7EA"/> <path d="M4.519 0v9.057h3V0h-3ZM0 3.019v3.019h12v-3.02H0Z" fill="#FFF7EA"/> <path d="M0 3.642v1.81h12v-1.81H0ZM5.119 0v9.057h1.8V0h-1.8Z" fill="#000"/> <path stroke="#000" d="M0 0h12v9.057H0z"/> <path d="m19.762 14.97-.768.098.082.774-.555-.544-.551.547.075-.773-.769-.09.649-.423-.409-.66.735.244.259-.736.266.733.732-.253-.402.664.653.419h.003Zm-.138-4.423.101-.49-.367-.34.494-.057.207-.456.206.456.495.057-.368.34.102.49-.435-.249-.435.25ZM15.72 8.283l-.761.083.067.766-.54-.547-.555.532.09-.766-.757-.102.649-.408-.394-.66.723.257.27-.721.252.728.727-.237-.409.652.642.423h-.004Zm7.643-1.238-.784.102.086.789-.566-.555-.563.559.079-.793-.784-.09.664-.434-.416-.676.75.253.262-.747.27.747.747-.26-.413.679.668.426Zm-3.604-3.15-.776.086.07.785-.55-.558-.567.543.09-.781-.776-.106.664-.415-.402-.675.74.26.273-.736.255.743.742-.245-.416.664.653.434ZM8.775 14.554l-1.717.204.172 1.732L6 15.268l-1.237 1.215.183-1.732-1.717-.219 1.459-.936-.9-1.487 1.635.566.592-1.637.581 1.641 1.639-.555-.911 1.48 1.455.947-.004.004Z" fill="#FFF7EA"/> </g> <path stroke="#000" stroke-width=".453" d="M.226.226h23.547v17.66H.226z"/> <defs> <clipPath id="a"> <path fill="#fff" d="M0 0h24v18.113H0z"/> </clipPath> </defs> </svg>