 <svg xmlns="http://www.w3.org/2000/svg" viewBox="0 0 24 24" fill="none"> <g clipPath="url(#clipUS)"> <path d="M22.81 4H1.42004V18.58H22.81V4Z" stroke="currentColor" strokeMiterlimit="10" strokeLinejoin="round" /> <path d="M22.81 4H1.42004V5.12H22.81V4Z" fill="currentColor" /> <path d="M22.81 6.24H1.42004V7.36H22.81V6.24Z" fill="currentColor" /> <path d="M22.81 8.48H1.42004V9.6H22.81V8.48Z" fill="currentColor" /> <path d="M22.81 10.73H1.42004V11.85H22.81V10.73Z" fill="currentColor" /> <path d="M22.81 12.97H1.42004V14.09H22.81V12.97Z" fill="currentColor" /> <path d="M22.81 15.21H1.42004V16.33H22.81V15.21Z" fill="currentColor" /> <path d="M22.81 17.46H1.42004V18.58H22.81V17.46Z" fill="currentColor" /> <path d="M9.97004 4H1.42004V11.85H9.97004V4Z" fill="currentColor" /> <path d="M1.82007 4.63L2.02007 4.83L1.94007 5.14L2.15007 4.95L2.35007 5.14L2.27007 4.83L2.48007 4.63H2.22007L2.15007 4.32L2.07007 4.63H1.82007Z" fill="white" /> <path d="M3.23999 4.63L3.43999 4.83L3.35999 5.14L3.56999 4.95L3.76999 5.14L3.68999 4.83L3.88999 4.63H3.63999L3.56999 4.32L3.48999 4.63H3.23999Z" fill="white" /> <path d="M4.65002 4.63L4.86002 4.83L4.78002 5.14L4.98002 4.95L5.19002 5.14L5.11002 4.83L5.31002 4.63H5.06002L4.98002 4.32L4.91002 4.63H4.65002Z" fill="white" /> <path d="M6.07007 4.63L6.28007 4.83L6.20007 5.14L6.40007 4.95L6.61007 5.14L6.53007 4.83L6.73007 4.63H6.48007L6.40007 4.32L6.32007 4.63H6.07007Z" fill="white" /> <path d="M7.48999 4.63L7.68999 4.83L7.61999 5.14L7.81999 4.95L8.01999 5.14L7.94999 4.83L8.14999 4.63H7.89999L7.81999 4.32L7.73999 4.63H7.48999Z" fill="white" /> <path d="M8.91003 4.63L9.11003 4.83L9.03003 5.14L9.24003 4.95L9.44003 5.14L9.36003 4.83L9.57003 4.63H9.32003L9.24003 4.32L9.16003 4.63H8.91003Z" fill="white" /> <path d="M2.53003 5.42L2.73003 5.61L2.65003 5.92L2.86003 5.73L3.06003 5.92L2.98003 5.61L3.19003 5.42H2.93003L2.86003 5.11L2.78003 5.42H2.53003Z" fill="white" /> <path d="M3.94006 5.42L4.15006 5.61L4.07006 5.92L4.27006 5.73L4.48006 5.92L4.40006 5.61L4.60006 5.42H4.35006L4.27006 5.11L4.20006 5.42H3.94006Z" fill="white" /> <path d="M5.35999 5.42L5.56999 5.61L5.48998 5.92L5.68999 5.73L5.89999 5.92L5.81999 5.61L6.01999 5.42H5.76999L5.68999 5.11L5.60999 5.42H5.35999Z" fill="white" /> <path d="M6.78003 5.42L6.98003 5.61L6.91003 5.92L7.11003 5.73L7.31003 5.92L7.24003 5.61L7.44003 5.42H7.19003L7.11003 5.11L7.03003 5.42H6.78003Z" fill="white" /> <path d="M8.20007 5.42L8.40007 5.61L8.32007 5.92L8.53007 5.73L8.73007 5.92L8.65007 5.61L8.86007 5.42H8.61007L8.53007 5.11L8.45007 5.42H8.20007Z" fill="white" /> <path d="M1.82007 6.21L2.02007 6.4L1.94007 6.71L2.15007 6.52L2.35007 6.71L2.27007 6.4L2.48007 6.21H2.22007L2.15007 5.9L2.07007 6.21H1.82007Z" fill="white" /> <path d="M3.23999 6.21L3.43999 6.4L3.35999 6.71L3.56999 6.52L3.76999 6.71L3.68999 6.4L3.88999 6.21H3.63999L3.56999 5.9L3.48999 6.21H3.23999Z" fill="white" /> <path d="M4.65002 6.21L4.86002 6.4L4.78002 6.71L4.98002 6.52L5.19002 6.71L5.11002 6.4L5.31002 6.21H5.06002L4.98002 5.9L4.91002 6.21H4.65002Z" fill="white" /> <path d="M6.07007 6.21L6.28007 6.4L6.20007 6.71L6.40007 6.52L6.61007 6.71L6.53007 6.4L6.73007 6.21H6.48007L6.40007 5.9L6.32007 6.21H6.07007Z" fill="white" /> <path d="M7.48999 6.21L7.68999 6.4L7.61999 6.71L7.81999 6.52L8.01999 6.71L7.94999 6.4L8.14999 6.21H7.89999L7.81999 5.9L7.73999 6.21H7.48999Z" fill="white" /> <path d="M8.91003 6.21L9.11003 6.4L9.03003 6.71L9.24003 6.52L9.44003 6.71L9.36003 6.4L9.57003 6.21H9.32003L9.24003 5.9L9.16003 6.21H8.91003Z" fill="white" /> <path d="M2.54004 7L2.75004 7.19L2.67004 7.5L2.87004 7.31L3.08004 7.5L3.00004 7.19L3.20004 7H2.95004L2.87004 6.69L2.80004 7H2.54004Z" fill="white" /> <path d="M3.96008 7L4.17008 7.19L4.09008 7.5L4.29008 7.31L4.50008 7.5L4.42008 7.19L4.62008 7H4.37008L4.29008 6.69L4.21008 7H3.96008Z" fill="white" /> <path d="M5.38 7L5.58 7.19L5.51 7.5L5.71 7.31L5.91 7.5L5.84 7.19L6.04 7H5.79L5.71 6.69L5.63 7H5.38Z" fill="white" /> <path d="M6.80005 7L7.00005 7.19L6.92005 7.5L7.13005 7.31L7.33005 7.5L7.25005 7.19L7.46005 7H7.21005L7.13005 6.69L7.05005 7H6.80005Z" fill="white" /> <path d="M8.22009 7L8.42009 7.19L8.34009 7.5L8.55009 7.31L8.75009 7.5L8.67009 7.19L8.88009 7H8.62009L8.55009 6.69L8.47009 7H8.22009Z" fill="white" /> <path d="M1.84009 7.78L2.04009 7.97L1.96009 8.28L2.17009 8.09L2.37009 8.28L2.29009 7.97L2.50009 7.78H2.25009L2.17009 7.47L2.09009 7.78H1.84009Z" fill="white" /> <path d="M3.26001 7.78L3.46001 7.97L3.38001 8.28L3.59001 8.09L3.79001 8.28L3.71001 7.97L3.92001 7.78H3.66001L3.59001 7.47L3.51001 7.78H3.26001Z" fill="white" /> <path d="M4.68005 7.78L4.88005 7.97L4.80005 8.28L5.00005 8.09L5.21005 8.28L5.13005 7.97L5.33005 7.78H5.08005L5.00005 7.47L4.93005 7.78H4.68005Z" fill="white" /> <path d="M6.09009 7.78L6.30009 7.97L6.22009 8.28L6.42009 8.09L6.63009 8.28L6.55009 7.97L6.75009 7.78H6.50009L6.42009 7.47L6.35009 7.78H6.09009Z" fill="white" /> <path d="M7.51001 7.78L7.72001 7.97L7.64001 8.28L7.84001 8.09L8.04001 8.28L7.97001 7.97L8.17001 7.78H7.92001L7.84001 7.47L7.76001 7.78H7.51001Z" fill="white" /> <path d="M8.93005 7.78L9.13005 7.97L9.06005 8.28L9.26005 8.09L9.46005 8.28L9.39005 7.97L9.59005 7.78H9.34005L9.26005 7.47L9.18005 7.78H8.93005Z" fill="white" /> <path d="M1.8501 9.33L2.0601 9.52L1.9801 9.83L2.1801 9.64L2.3901 9.83L2.3101 9.52L2.5101 9.33H2.2601L2.1801 9.02L2.1001 9.33H1.8501Z" fill="white" /> <path d="M3.27002 9.33L3.47002 9.52L3.40002 9.83L3.60002 9.64L3.80002 9.83L3.73002 9.52L3.93002 9.33H3.68002L3.60002 9.02L3.52002 9.33H3.27002Z" fill="white" /> <path d="M4.69006 9.33L4.89006 9.52L4.81006 9.83L5.02006 9.64L5.22006 9.83L5.14006 9.52L5.35006 9.33H5.10006L5.02006 9.02L4.94006 9.33H4.69006Z" fill="white" /> <path d="M6.10999 9.33L6.30999 9.52L6.22999 9.83L6.43999 9.64L6.63999 9.83L6.55999 9.52L6.76999 9.33H6.50999L6.43999 9.02L6.35999 9.33H6.10999Z" fill="white" /> <path d="M7.52002 9.33L7.73002 9.52L7.65002 9.83L7.85002 9.64L8.06002 9.83L7.98002 9.52L8.18002 9.33H7.93002L7.85002 9.02L7.78002 9.33H7.52002Z" fill="white" /> <path d="M8.94006 9.33L9.15006 9.52L9.07006 9.83L9.27006 9.64L9.48006 9.83L9.40006 9.52L9.60006 9.33H9.35006L9.27006 9.02L9.19006 9.33H8.94006Z" fill="white" /> <path d="M1.83008 10.9L2.04008 11.09L1.96008 11.4L2.16008 11.21L2.37008 11.4L2.29008 11.09L2.49008 10.9H2.24008L2.16008 10.59L2.09008 10.9H1.83008Z" fill="white" /> <path d="M3.25 10.9L3.46 11.09L3.38 11.4L3.58 11.21L3.79 11.4L3.71 11.09L3.91 10.9H3.66L3.58 10.59L3.5 10.9H3.25Z" fill="white" /> <path d="M4.67004 10.9L4.87004 11.09L4.80004 11.4L5.00004 11.21L5.20004 11.4L5.13004 11.09L5.33004 10.9H5.08004L5.00004 10.59L4.92004 10.9H4.67004Z" fill="white" /> <path d="M6.09009 10.9L6.29009 11.09L6.22009 11.4L6.42009 11.21L6.62009 11.4L6.54009 11.09L6.75009 10.9H6.50009L6.42009 10.59L6.34009 10.9H6.09009Z" fill="white" /> <path d="M7.51001 10.9L7.71001 11.09L7.63001 11.4L7.84001 11.21L8.04001 11.4L7.96001 11.09L8.17001 10.9H7.91001L7.84001 10.59L7.76001 10.9H7.51001Z" fill="white" /> <path d="M8.93005 10.9L9.13005 11.09L9.05005 11.4L9.26005 11.21L9.46005 11.4L9.38005 11.09L9.59005 10.9H9.33005L9.26005 10.59L9.18005 10.9H8.93005Z" fill="white" /> <path d="M2.55005 8.55L2.75005 8.74L2.67005 9.05L2.88005 8.86L3.08005 9.05L3.00005 8.74L3.21005 8.55H2.96005L2.88005 8.24L2.80005 8.55H2.55005Z" fill="white" /> <path d="M3.97009 8.55L4.17009 8.74L4.09009 9.05L4.30009 8.86L4.50009 9.05L4.42009 8.74L4.63009 8.55H4.37009L4.30009 8.24L4.22009 8.55H3.97009Z" fill="white" /> <path d="M5.38 8.55L5.59 8.74L5.51 9.05L5.71 8.86L5.92 9.05L5.84 8.74L6.04 8.55H5.79L5.71 8.24L5.64 8.55H5.38Z" fill="white" /> <path d="M6.80005 8.55L7.01005 8.74L6.93005 9.05L7.13005 8.86L7.34005 9.05L7.26005 8.74L7.46005 8.55H7.21005L7.13005 8.24L7.05005 8.55H6.80005Z" fill="white" /> <path d="M8.22009 8.55L8.42009 8.74L8.35009 9.05L8.55009 8.86L8.75009 9.05L8.68009 8.74L8.88009 8.55H8.63009L8.55009 8.24L8.47009 8.55H8.22009Z" fill="white" /> <path d="M2.54004 10.11L2.75004 10.3L2.67004 10.62L2.87004 10.42L3.08004 10.62L3.00004 10.3L3.20004 10.11H2.95004L2.87004 9.8L2.80004 10.11H2.54004Z" fill="white" /> <path d="M3.96008 10.11L4.17008 10.3L4.09008 10.62L4.29008 10.42L4.50008 10.62L4.42008 10.3L4.62008 10.11H4.37008L4.29008 9.8L4.21008 10.11H3.96008Z" fill="white" /> <path d="M5.38 10.11L5.58 10.3L5.51 10.62L5.71 10.42L5.91 10.62L5.84 10.3L6.04 10.11H5.79L5.71 9.8L5.63 10.11H5.38Z" fill="white" /> <path d="M6.80005 10.11L7.00005 10.3L6.92005 10.62L7.13005 10.42L7.33005 10.62L7.25005 10.3L7.46005 10.11H7.21005L7.13005 9.8L7.05005 10.11H6.80005Z" fill="white" /> <path d="M8.22009 10.11L8.42009 10.3L8.34009 10.62L8.55009 10.42L8.75009 10.62L8.67009 10.3L8.88009 10.11H8.62009L8.55009 9.8L8.47009 10.11H8.22009Z" fill="white" /> </g> <defs> <clipPath id="clipUS"> <rect width="24" height="24" fill="white" /> </clipPath> </defs> </svg> 