 <svg xmlns="http://www.w3.org/2000/svg" viewBox="0 0 24 24" fill="none"> <g clipPath="url(#clipUK)"> <path d="M22.71 4H1.42004V18.58H22.71V4Z" stroke="currentColor" strokeMiterlimit="10" strokeLinejoin="round" /> <path d="M11 12.74V18.58H13.13V12.74H22.71V9.83H13.13V4H11V9.83H1.42004V12.74H11Z" fill="currentColor" /> <path d="M13.8401 8.72V4H20.7301L13.8401 8.72Z" fill="currentColor" /> <path d="M13.8401 13.86V18.58H20.7301L13.8401 13.86Z" fill="currentColor" /> <path d="M10.29 13.86V18.58H3.39001L10.29 13.86Z" fill="currentColor" /> <path d="M10.29 8.72V4H3.39001L10.29 8.72Z" fill="currentColor" /> <path d="M1.42004 5.35V8.86H6.53004L1.42004 5.35Z" fill="currentColor" /> <path d="M22.7101 5.35V8.86H17.5901L22.7101 5.35Z" fill="currentColor" /> <path d="M22.7101 17.22V13.72H17.5901L22.7101 17.22Z" fill="currentColor" /> <path d="M1.42004 17.22V13.72H6.53004L1.42004 17.22Z" fill="currentColor" /> <path d="M22.7101 4H21.5201L14.4401 8.86H15.6201L22.7201 4" fill="currentColor" /> <path d="M9.68004 13.72H8.50004L1.42004 18.58H2.60004L9.69004 13.72" fill="currentColor" /> <path d="M7.33004 8.86H8.51004L1.42004 4V4.81L7.33004 8.86Z" fill="currentColor" /> <path d="M16.79 13.71H15.61L22.7 18.58V17.76L16.79 13.71Z" fill="currentColor" /> </g> <defs> <clipPath id="clipUK"> <rect width="24" height="24" fill="white" /> </clipPath> </defs> </svg> 